SplineFontDB: 3.0
FontName: Spasm
FullName: Spasm
FamilyName: Spasm
Weight: Medium
Copyright: Created by TheMonsterFromTheDeep with FontForge 2.0 (http://fontforge.sf.net)
UComments: "2016-8-4: Created." 
Version: 001.000
ItalicAngle: 0
UnderlinePosition: -100
UnderlineWidth: 50
Ascent: 800
Descent: 200
LayerCount: 2
Layer: 0 0 "Back"  1
Layer: 1 0 "Fore"  0
XUID: [1021 649 112547232 11126184]
FSType: 8
OS2Version: 0
OS2_WeightWidthSlopeOnly: 0
OS2_UseTypoMetrics: 1
CreationTime: 1470372436
ModificationTime: 1470856003
PfmFamily: 17
TTFWeight: 500
TTFWidth: 5
LineGap: 90
VLineGap: 0
OS2TypoAscent: 0
OS2TypoAOffset: 1
OS2TypoDescent: 0
OS2TypoDOffset: 1
OS2TypoLinegap: 90
OS2WinAscent: 0
OS2WinAOffset: 1
OS2WinDescent: 0
OS2WinDOffset: 1
HheadAscent: 0
HheadAOffset: 1
HheadDescent: 0
HheadDOffset: 1
OS2Vendor: 'PfEd'
MarkAttachClasses: 2
"" 0 
DEI: 91125
LangName: 1033 
Encoding: ISO8859-1
UnicodeInterp: none
NameList: Adobe Glyph List
DisplaySize: -24
AntiAlias: 1
FitToEm: 1
WinInfo: 48 16 4
BeginPrivate: 0
EndPrivate
Grid
-1000 69 m 0
 2000 69 l 0
EndSplineSet
TeXData: 1 0 0 346030 173015 115343 0 1048576 115343 783286 444596 497025 792723 393216 433062 380633 303038 157286 324010 404750 52429 2506097 1059062 262144
BeginChars: 256 95

StartChar: o
Encoding: 111 111 0
Width: 700
VWidth: 0
Flags: W
HStem: -10 50<284.37 415.63> 460 50<284.37 415.63>
VStem: 100 100<147.273 352.727> 500 100<147.273 352.727>
LayerCount: 2
Fore
SplineSet
200 250 m 0
 200 158 248 40 350 40 c 0
 452 40 500 158 500 250 c 0
 500 342 452 460 350 460 c 0
 248 460 200 342 200 250 c 0
100 250 m 0
 100 384 205 510 350 510 c 0
 495 510 600 384 600 250 c 0
 600 116 495 -10 350 -10 c 0
 205 -10 100 116 100 250 c 0
EndSplineSet
EndChar

StartChar: a
Encoding: 97 97 1
Width: 700
VWidth: 0
Flags: W
HStem: -10 76.1748<185.19 347.357> 209.825 86.1748<183.12 365.358> 410 87<203.987 368.57>
VStem: 86 86.6523<79.6273 199.401> 104.823 72.1768<355.866 381.658> 426 100<137.5 350.774>
LayerCount: 2
Fore
SplineSet
526 250 m 1xe4
 431 252 l 1
 492 0 l 1
 615 0 l 1
 545 140 l 1
 526 250 l 1xe4
177 332 m 1xec
 179 394 234 410 289 410 c 0
 391 410 426 343 426 251 c 0
 426 159 369.915 66.1748 276.33 66.1748 c 0
 182.745 66.1748 172.652 77.1592 172.652 154.9 c 3
 172.652 205.639 214 210 251.558 209.825 c 27
 326 210 430 187 430 142 c 0
 463 208 l 0
 463 253 324 296 244 296 c 3
 166.379 296 86 253.459 86 165 c 3xf4
 86 31 133 -10 278 -10 c 0
 423 -10 526 116 526 250 c 0
 526 384 425 497 280 497 c 0
 224.498 497 106 507 104.823 362.314 c 1
 101.575 362.575 131 337 177 332 c 1xec
189.586 414.317 m 1
125.721 433.235 m 1
EndSplineSet
EndChar

StartChar: n
Encoding: 110 110 2
Width: 700
VWidth: 0
Flags: W
HStem: 0 21G<134 225 495 588> 436 80<286.617 416.804>
VStem: 134 91<0 358.317> 495 93<0 341.534>
LayerCount: 2
Fore
SplineSet
104 455 m 1
 180 494 l 1
 225 433 l 1
 231 460 295 516 345 516 c 0
 490 516 588 369 588 235 c 0
 588 101 588 98 588 0 c 1
 554 0 529 0 495 0 c 1
 495 0 495 164 495 235 c 0
 495 327 451 436 349 436 c 0
 247 436 225 306 225 262 c 2
 225 0 l 1
 134 0 l 1
 135 375 l 1
 104 455 l 1
EndSplineSet
EndChar

StartChar: e
Encoding: 101 101 3
Width: 700
VWidth: 0
Flags: W
HStem: -10 73<277.864 437.832> 225 71<150 382.558> 447 63<279.573 439.029>
VStem: 150 50<225 296> 500 100<251.5 368.962>
LayerCount: 2
Fore
SplineSet
521.374 163.094 m 1
 504 102 409.938 63 350 63 c 0
 248 63 200 158 200 250 c 0
 200 342 248 447 350 447 c 0
 452 447 500 388 500 296 c 0
 500 294.111 286 296 150 296 c 25
 150 225 l 25
 500 224 l 18
 541.977 223.88 600 233 600 270 c 0
 600 404 495 510 350 510 c 0
 205 510 100 384 100 250 c 0
 100 116 205 -10 350 -10 c 0
 432.182 -10 590 69 574.618 141.692 c 1
 521.374 163.094 l 1
574.618 141.692 m 1
EndSplineSet
EndChar

StartChar: h
Encoding: 104 104 4
Width: 700
VWidth: 0
Flags: W
HStem: 0 21G<134 225 495 588> 436 89<286.134 417.378>
VStem: 134 91<0 358.317> 135 80<433 775> 495 93<0 343.084>
LayerCount: 2
Fore
SplineSet
132 775 m 1xd8
 216.433 787.965 l 1
 215 433 l 1xd8
 225 509 309 525 359 525 c 0
 504 525 588 369 588 235 c 0
 588 101 588 98 588 0 c 1
 554 0 529 0 495 0 c 1
 495 0 495 164 495 235 c 0
 495 327 451 436 349 436 c 0
 247 436 225 306 225 262 c 2
 225 0 l 1
 134 0 l 1xe8
 135 375 l 1
 132 775 l 1xd8
EndSplineSet
EndChar

StartChar: c
Encoding: 99 99 6
Width: 700
VWidth: 0
Flags: W
HStem: -10 73<277.864 437.832> 444 78<287.403 445.985>
VStem: 100 100<158.776 346.11> 521.374 53.2441<359.494 385.707>
LayerCount: 2
Fore
SplineSet
359 522 m 0
 214 522 100 399 100 265 c 0
 100 131 205 -10 350 -10 c 0
 432.182 -10 590 69 574.618 141.692 c 1
 521.374 163.094 l 1
 504 102 409.938 63 350 63 c 0
 248 63 200 158 200 250 c 0
 200 342 257 444 359 444 c 3
 461.437 444 509 393 521.374 340.906 c 1
 574.618 362.308 l 1
 561 502 359 522 359 522 c 0
574.618 141.692 m 1
EndSplineSet
EndChar

StartChar: m
Encoding: 109 109 7
Width: 700
VWidth: 0
Flags: W
HStem: 0 21G<60 150 328 419 576 670> 270 61<328 419> 389 121<434.085 540.346> 397 119<180.37 301.135>
VStem: 60 90<0 364.406> 328 91<0 331> 576 94<0 348.139>
LayerCount: 2
Fore
SplineSet
328 331 m 25xce
 419 331 l 25
 419 0 l 25
 328 0 l 25
 328 331 l 25xce
377 450 m 3
 390.602 450 439.992 510 501 510 c 3
 631 510 670 386.8 670 235 c 0
 670 101 670 98 670 0 c 1
 636 0 610 0 576 0 c 1
 576 0 576 164 576 235 c 3
 576 342.64 545.168 389 485 389 c 3xee
 377 389 446 270 375 270 c 1
 301 270 370 397 248 397 c 0
 146 397 150 309 150 262 c 2
 150 0 l 1
 60 0 l 1
 61 375 l 1
 30 455 l 1
 106 494 l 1
 141 442 l 1
 147 469 179.236 516 253 516 c 3xde
 283.239 516 358.973 450 377 450 c 3
EndSplineSet
EndChar

StartChar: b
Encoding: 98 98 8
Width: 700
VWidth: 0
Flags: W
HStem: -10 50<280.227 415.63> 0 21G<72 170.66> 460 50<280.227 415.63>
VStem: 93.5674 84.4326<285.735 779.035> 96 90<122.416 711.238> 96 4<218.797 281.203> 500 100<147.273 352.727>
LayerCount: 2
Fore
SplineSet
169 0 m 1x72
 72 0 l 1
 87 87 l 1
 96 183 l 1x6a
 93.5674 779.035 l 1
 178 792 l 1
 186.103 205.995 l 1
 169 0 l 1x72
186 250 m 0
 186 158 248 40 350 40 c 0xaa
 452 40 500 158 500 250 c 0
 500 342 452 460 350 460 c 0
 248 460 186 342 186 250 c 0
100 250 m 0xa6
 100 384 205 510 350 510 c 0
 495 510 600 384 600 250 c 0
 600 116 495 -10 350 -10 c 0
 205 -10 100 116 100 250 c 0xa6
EndSplineSet
EndChar

StartChar: d
Encoding: 100 100 9
Width: 700
VWidth: 0
Flags: W
HStem: -10 50<284.37 421.646> 0 21G<529.361 628> 460 50<284.37 416.724>
VStem: 100 100<147.273 352.727> 514 89.5674<132.594 681.077> 522 84<317.928 779> 600 3.56738<217.087 267.092>
LayerCount: 2
Fore
SplineSet
531 0 m 1x78
 513.465 213.96 l 1
 522 792 l 1
 606 779 l 1x74
 603.567 190.965 l 1
 612.567 94.9648 l 1
 628 0 l 1
 531 0 l 1x78
514 242 m 0xb8
 514 334 452 460 350 460 c 0
 248 460 200 342 200 250 c 0
 200 158 248 40 350 40 c 0
 452 40 514 150 514 242 c 0xb8
600 242 m 0xb2
 600 108 495 -10 350 -10 c 0
 205 -10 100 116 100 250 c 0
 100 384 205 510 350 510 c 0
 495 510 600 376 600 242 c 0xb2
EndSplineSet
EndChar

StartChar: p
Encoding: 112 112 10
Width: 700
VWidth: 0
Flags: W
HStem: -192 21G<104 188.082> -10 50<280.539 415.63> 460 50<280.539 415.63>
VStem: 99 1<116 384> 100 90<-179 379.222> 500 100<147.273 352.727>
LayerCount: 2
Fore
SplineSet
172 510 m 1xf4
 190 296 l 1xec
 188 -192 l 1
 104 -179 l 1
 99 319 l 1
 90 415 l 1
 75 510 l 1
 172 510 l 1xf4
190 250 m 0
 190 158 248 40 350 40 c 0
 452 40 500 158 500 250 c 0
 500 342 452 460 350 460 c 0
 248 460 190 342 190 250 c 0
100 250 m 0xf4
 100 384 205 510 350 510 c 0
 495 510 600 384 600 250 c 0
 600 116 495 -10 350 -10 c 0
 205 -10 100 116 100 250 c 0xf4
EndSplineSet
EndChar

StartChar: q
Encoding: 113 113 11
Width: 700
VWidth: 0
Flags: W
HStem: -10 50<284.37 419.461> 460 50<284.37 419.461>
VStem: 100 100<147.273 352.727> 510 90<-92.0348 71 296 379.222> 600 1<116 384>
LayerCount: 2
Fore
SplineSet
622 -196 m 3xf0
 641 -110 l 0
 606.071 -110 596 6 596 71 c 1
 601 319 l 1xe8
 610 415 l 1
 625 510 l 1
 528 510 l 1
 510 296 l 1
 512 58 l 1
 512 -30 529.885 -196 622 -196 c 3xf0
510 250 m 0xf0
 510 158 452 40 350 40 c 0
 248 40 200 158 200 250 c 0
 200 342 248 460 350 460 c 0
 452 460 510 342 510 250 c 0xf0
600 250 m 0xe8
 600 384 495 510 350 510 c 0
 205 510 100 384 100 250 c 0
 100 116 205 -10 350 -10 c 0
 495 -10 600 116 600 250 c 0xe8
EndSplineSet
EndChar

StartChar: s
Encoding: 115 115 12
Width: 700
VWidth: 0
Flags: W
HStem: 210 90<216.805 478.542>
VStem: 100 75<333.034 392.165> 520 80<98.6531 179.861>
LayerCount: 2
Fore
SplineSet
145 130 m 0
 217 57 520 27 520 140 c 3
 520 171.257 492.425 210 350 210 c 3
 93.998 210 100 314.906 100 363 c 3
 100 570.172 498 521 600 418 c 0
 555 373 l 0
 483 446 175 440.007 175 363 c 3
 175 338 220.965 300 350 300 c 3
 634.028 300 600 182.19 600 140 c 3
 600 -91.002 202 -18 100 85 c 0
 145 130 l 0
EndSplineSet
EndChar

StartChar: f
Encoding: 102 102 13
Width: 700
VWidth: 0
Flags: W
HStem: 405 78<68 248.444> 423 78<351.556 532>
VStem: 224 91<434.815 669.891> 251 87<0 152.185>
LayerCount: 2
Fore
SplineSet
68 483 m 1x80
 68 405 l 1x80
 532 423 l 1
 532 501 l 1x40
 68 483 l 1x80
251 0 m 1x10
 338 0 l 1x10
 315 586 l 1
 313 710 410 724 436 725 c 0
 496 728 526 695 560 643 c 0
 619 666 l 0
 568 749 534 809 443 804 c 0
 293 796 220 656 224 587 c 1x20
 251 0 l 1x10
EndSplineSet
EndChar

StartChar: i
Encoding: 105 105 14
Width: 700
VWidth: 0
Flags: W
HStem: 0 78<321.128 495.013> 470 130<137.303 234.697>
VStem: 120 132<486.85 583.15> 176 91<132.976 251> 524 60<105.356 122>
LayerCount: 2
Fore
SplineSet
524 142 m 3xd8
 524 99 460 78 400 78 c 0
 374 78 272 84 267 208 c 1
 251 410 l 1
 226 434 l 1
 166 444 l 1
 156 342 l 1
 176 202 l 1
 176 133 261 0 411 0 c 0
 502 0 584 63 584 122 c 0
 524 142 l 3xd8
120 535 m 0xe8
 120 571 150 600 186 600 c 0
 222 600 252 571 252 535 c 0
 252 499 222 470 186 470 c 0
 150 470 120 499 120 535 c 0xe8
EndSplineSet
EndChar

StartChar: j
Encoding: 106 106 15
Width: 700
VWidth: 0
Flags: W
HStem: -191 78<286.778 436.872> 469 130<414.303 511.697>
VStem: 119 60<-31.0283 -13> 397 132<485.85 582.15>
LayerCount: 2
Fore
SplineSet
179 7 m 3
 179 -36 298 -113 358 -113 c 0
 384 -113 486 -107 491 17 c 1
 439 410 l 1
 464 434 l 1
 524 444 l 1
 534 342 l 1
 582 11 l 1
 582 -58 497 -191 347 -191 c 0
 256 -191 119 -72 119 -13 c 0
 179 7 l 3
529 534 m 0
 529 570 499 599 463 599 c 0
 427 599 397 570 397 534 c 0
 397 498 427 469 463 469 c 0
 499 469 529 498 529 534 c 0
EndSplineSet
EndChar

StartChar: t
Encoding: 116 116 16
Width: 700
VWidth: 0
Flags: W
HStem: -16 77<391.457 508.086> 405 78<62 205.792> 429 78<411.208 555>
VStem: 238 83<632.8 770> 255 91<116.328 373.2>
LayerCount: 2
Fore
SplineSet
62 483 m 1xc0
 62 405 l 1xc0
 555 429 l 1
 555 507 l 1xa0
 62 483 l 1xc0
238 770 m 1x90
 255 202 l 1
 255 133 300 -16 450 -16 c 0
 541 -16 549 17 595 103 c 0
 535 123 l 0
 504 69 499 61 439 61 c 0
 413 61 351 84 346 208 c 1x88
 321 798 l 1
 238 770 l 1x90
EndSplineSet
EndChar

StartChar: l
Encoding: 108 108 17
Width: 700
VWidth: 0
Flags: W
HStem: 0 78<321.128 496.466>
VStem: 176 91<132.976 342.129>
LayerCount: 2
Fore
SplineSet
152 732 m 1
 176 202 l 1
 176 133 261 0 411 0 c 0
 502 0 548 14 594 100 c 0
 534 120 l 0
 458 78 460 78 400 78 c 0
 374 78 272 84 267 208 c 1
 236 802 l 1
 152 732 l 1
EndSplineSet
EndChar

StartChar: u
Encoding: 117 117 18
Width: 700
VWidth: 0
Flags: W
HStem: -7 77<287.53 364.425 567.448 579> 468 20G<82 170>
VStem: 82 88<309.717 486> 512 79<305.917 476>
LayerCount: 2
Fore
SplineSet
579 -7 m 0
 484.169 -7 369 0.536133 369 59 c 0
 539 283 l 3
 539 216.352 522 70 618 70 c 0
 579 -7 l 0
591 476 m 0
 591 342 591 0 332 -10 c 0
 79.1885 -19.7607 82 352 82 486 c 0
 170 488 l 0
 170 396 214.097 80.4307 316 76 c 0
 477 69 512 384 512 476 c 0
 591 476 l 0
EndSplineSet
EndChar

StartChar: v
Encoding: 118 118 19
Width: 700
VWidth: 0
Flags: W
HStem: 466 20G<100 200 500 600>
VStem: 100 100<390.938 486> 500 100<390.938 486>
LayerCount: 2
Fore
SplineSet
600 486 m 0
 600 352 390 -10 350 -10 c 0
 315 -10 100 352 100 486 c 0
 200 486 l 0
 200 394 329 126 350 126 c 0
 374 126 500 394 500 486 c 0
 600 486 l 0
EndSplineSet
EndChar

StartChar: w
Encoding: 119 119 20
Width: 700
VWidth: 0
Flags: W
HStem: 480 20G<33 133 583 672>
VStem: 33 100<383.791 500> 583 89<389.933 505>
LayerCount: 2
Fore
SplineSet
238 -10 m 1
 203 -10 33 366 33 500 c 0
 133 500 l 0
 133 408 221 166 242 166 c 1
 260 166 315 294 349 307 c 1
 380 300 455.612 160 470 160 c 0
 494 160 583 413 583 505 c 0
 672 507 l 0
 672 373 510 -10 470 -10 c 0
 449.793 -10 421.188 31.2168 357 159 c 1
 292 31 268 -10 238 -10 c 1
EndSplineSet
EndChar

StartChar: y
Encoding: 121 121 21
Width: 700
VWidth: 0
Flags: W
HStem: 466 20G<100 200 500 600>
VStem: 100 100<405.007 486> 500 100<406.992 486>
LayerCount: 2
Fore
SplineSet
199 -207 m 0
 146 -156 l 3
 186 -156 309 62 309 62 c 1
 234.867 179.128 100 396.498 100 486 c 0
 200 486 l 0
 200 394 329 126 350 126 c 0
 374 126 500 394 500 486 c 0
 600 486 l 0
 600 352 251 -207 199 -207 c 0
EndSplineSet
EndChar

StartChar: k
Encoding: 107 107 22
Width: 700
VWidth: 0
Flags: W
VStem: 113 91<8 193.267>
LayerCount: 2
Fore
SplineSet
160 382 m 1
 167 240 l 1
 491.582 427.515 l 1
 489.889 525.488 l 1
 160 382 l 1
158 371 m 1
 165 231 l 1
 467 0 l 1
 613 0 l 1
 158 371 l 1
204 8 m 1
 174 802 l 1
 90 732 l 1
 113 2 l 1
 204 8 l 1
EndSplineSet
EndChar

StartChar: r
Encoding: 114 114 23
Width: 700
VWidth: 0
Flags: W
LayerCount: 2
Fore
SplineSet
159 510 m 1
 118 465 l 1
 152 385 l 1
 153 0 l 1
 240 0 l 1
 239.241 388.385 l 1
 239.241 388.385 381 457 584 389 c 1
 584 467 l 1
 444.532 515.255 292.658 500.919 225 488 c 1
 159 510 l 1
EndSplineSet
EndChar

StartChar: x
Encoding: 120 120 24
Width: 700
VWidth: 0
Flags: W
HStem: -1 21G<100 187 487 600> 192 120<339 366> 466 20G<100 210 510 600>
VStem: 100 110<416.154 486> 100 87<-1 63.7544> 510 90<425.609 486>
LayerCount: 2
Fore
SplineSet
600 -1 m 1xec
 566.667 1.56591 520.333 -1.16211 487 -1 c 1
 487 91 360 192 350 192 c 0
 339 192 187 91 187 -1 c 0
 100 -1 l 0
 100 133 339 309 350 309 c 0
 361 309 600 133 600 -1 c 1xec
600 486 m 0
 600 352 362 192 350 192 c 0
 340 192 100 352 100 486 c 0
 210 486 l 0xf4
 210 394 329 312 350 312 c 0
 370 312 510 396 510 488 c 0
 600 486 l 0
EndSplineSet
EndChar

StartChar: g
Encoding: 103 103 25
Width: 700
VWidth: 0
Flags: W
HStem: -10 50<284.37 419.461> 460 50<284.37 419.461>
VStem: 100 100<147.273 352.727> 510 90<-47.3468 -15 296 355.444> 600 1<116 384>
LayerCount: 2
Fore
SplineSet
152 -64 m 0xf0
 153.1 -137.068 l 0
 366 -277 597 -154 597 -40 c 1
 601 319 l 1xe8
 610 415 l 1
 625 510 l 1
 528 510 l 1
 510 296 l 1
 508 -15 l 1
 454 -141 331 -149 152 -64 c 0xf0
510 250 m 0xf0
 510 158 452 40 350 40 c 0
 248 40 200 158 200 250 c 0
 200 342 248 460 350 460 c 0
 452 460 510 342 510 250 c 0xf0
600 250 m 0xe8
 600 384 495 510 350 510 c 0
 205 510 100 384 100 250 c 0
 100 116 205 -10 350 -10 c 0
 495 -10 600 116 600 250 c 0xe8
EndSplineSet
EndChar

StartChar: z
Encoding: 122 122 26
Width: 700
VWidth: 0
Flags: W
HStem: 1 88<327.233 575> 399 90<126 526.799> 406 81<131.968 527>
LayerCount: 2
Fore
SplineSet
575 89 m 0xa0
 416 89 184 102.944 184 112 c 3
 184 121.056 219.5 152.951 350 210 c 0
 716 370 648.094 487 600 487 c 3xa0
 438.105 487 321 489 100 489 c 0
 126 399 l 0xc0
 251 399 527 406 527 406 c 3
 527 381 455 343 335 295 c 0
 13.3327 166.333 83.9688 0 100 0 c 3
 198.899 0 379 1 600 1 c 0
 575 89 l 0xa0
EndSplineSet
EndChar

StartChar: zero
Encoding: 48 48 27
Width: 700
VWidth: 0
Flags: W
HStem: -10 79<257.16 435.474> 660 78<272.726 440.569>
VStem: 100 77<189.133 529.126> 527 73<179.341 535.946>
LayerCount: 2
Fore
SplineSet
426 647 m 25
 518 647 l 25
 286 69 l 25
 197 69 l 25
 426 647 l 25
177 367 m 0
 177 275 181 69 350 69 c 0
 533 69 527 275 527 367 c 0
 527 459 519.106 660 350 660 c 0
 185 660 177 459 177 367 c 0
100 367 m 0
 100 501 145 738 350 738 c 0
 583 738 600 501 600 367 c 0
 600 233 585 -10 350 -10 c 0
 103 -10 100 233 100 367 c 0
EndSplineSet
EndChar

StartChar: two
Encoding: 50 50 28
Width: 700
VWidth: 0
Flags: W
HStem: 0 74<205 596> 217 86<292.341 410.549> 702 62<279.573 420.427>
VStem: 100 100<453.46 606.977> 116 89<56 132.413 454.229 502.915> 500 100<408.751 606.977>
LayerCount: 2
Fore
SplineSet
596 0 m 1xec
 116 0 l 1
 116 74 l 1
 596 74 l 1
 596 0 l 1xec
205 56 m 3
 116 74 l 3xec
 116 117.104 188.861 303 348 303 c 3
 435.092 303 500 412 500 504 c 0
 500 596 452 702 350 702 c 0
 248 702 200 596 200 504 c 0
 200 488.404 200.379 472.062 204.167 455.673 c 1
 109.063 435.886 l 1
 103.133 457.946 100 480.854 100 504 c 0xf4
 100 638 205 764 350 764 c 0
 495 764 600 638 600 504 c 0
 600 370 509.962 220.332 365 217 c 0
 278 215 205 144.566 205 56 c 3
EndSplineSet
EndChar

StartChar: O
Encoding: 79 79 29
Width: 700
VWidth: 0
Flags: W
HStem: -10 79<252.032 450.681> 685 78<261.012 447.565>
VStem: 30 89<224.902 509.044> 582 91<222.686 518.325>
LayerCount: 2
Fore
SplineSet
119 372 m 0
 119 210 181 69 350 69 c 0
 533 69 582 218 582 372 c 0
 582 532 519.106 685 350 685 c 0
 185 685 119 518 119 372 c 0
30 372 m 0
 30 572 145 763 350 763 c 0
 583 763 673 586 673 372 c 0
 673 164 585 -10 350 -10 c 0
 103 -10 30 168 30 372 c 0
EndSplineSet
EndChar

StartChar: H
Encoding: 72 72 30
Width: 700
VWidth: 0
Flags: W
VStem: 464 86<0 509.6> 474 80<218.4 728>
LayerCount: 2
Fore
SplineSet
550 0 m 1x80
 554 740 l 1
 474 728 l 1x40
 464 0 l 1
 550 0 l 1x80
156 386 m 1
 156 308 l 1
 536 312 l 1
 536 390 l 1
 156 386 l 1
216 0 m 1
 216 736 l 1
 136 724 l 1
 130 0 l 1
 216 0 l 1
EndSplineSet
EndChar

StartChar: J
Encoding: 74 74 31
Width: 700
VWidth: 0
Flags: W
HStem: 3 78<256.778 396.352>
VStem: 89 60<162.972 181>
LayerCount: 2
Fore
SplineSet
250 758 m 1
 602 782 l 1
 602 704 l 1
 250 680 l 1
 250 758 l 1
392 732 m 1
 490 746 l 1
 552 205 l 1
 552 136 467 3 317 3 c 0
 226 3 89 122 89 181 c 0
 149 201 l 3
 149 158 268 81 328 81 c 0
 354 81 443 88 448 212 c 1
 392 732 l 1
EndSplineSet
EndChar

StartChar: I
Encoding: 73 73 32
Width: 700
VWidth: 0
Flags: W
HStem: 0 78<168 414.4> 10 78<318 404 484.8 520>
VStem: 302 80<494.636 706> 318 86<16 239.364>
LayerCount: 2
Fore
SplineSet
168 78 m 1x80
 168 0 l 1x80
 520 10 l 1
 520 88 l 1x40
 168 78 l 1x80
168 726 m 1
 168 648 l 1
 520 672 l 1
 520 750 l 1
 168 726 l 1
404 16 m 1x10
 382 718 l 1
 302 706 l 1x20
 318 16 l 1
 404 16 l 1x10
EndSplineSet
EndChar

StartChar: Q
Encoding: 81 81 33
Width: 700
VWidth: 0
Flags: W
HStem: -10 79<238.032 436.681> 0 21G<649.926 673.647> 685 78<247.012 433.565>
VStem: 16 89<224.902 509.044> 568 91<218.44 518.325>
LayerCount: 2
Fore
SplineSet
410 335 m 1x78
 689 136 l 1
 671 0 l 1
 416 242 l 1
 410 335 l 1x78
105 372 m 0
 105 210 167 69 336 69 c 0xb8
 519 69 568 218 568 372 c 0
 568 532 505.106 685 336 685 c 0
 171 685 105 518 105 372 c 0
16 372 m 0
 16 572 131 763 336 763 c 0
 569 763 659 586 659 372 c 0
 659 164 571 -10 336 -10 c 0
 89 -10 16 168 16 372 c 0
EndSplineSet
EndChar

StartChar: U
Encoding: 85 85 34
Width: 700
VWidth: 0
Flags: W
HStem: -10 111<275.725 434.32>
VStem: 30 89<488.355 733> 582 91<483.844 733>
LayerCount: 2
Fore
SplineSet
673 733 m 0
 673 525 736 -10 350 -10 c 0
 0 -10 30 529 30 733 c 0
 119 733 l 0
 119 571 120 101 354 101 c 0
 606 101 582 579 582 733 c 0
 673 733 l 0
EndSplineSet
EndChar

StartChar: C
Encoding: 67 67 35
Width: 700
VWidth: 0
Flags: W
HStem: -10 79<255.839 454.314> 528.359 21G<542.173 650.046> 685 78<261.012 449.048>
VStem: 30 89<224.902 509.044>
LayerCount: 2
Fore
SplineSet
558.025 528.359 m 1
 526.32 618.997 461.07 685 350 685 c 0
 185 685 119 518 119 372 c 0
 119 210 181 69 350 69 c 0
 460.021 69 521.607 122.855 553.23 199.275 c 1
 626.018 145.777 l 1
 577.899 51.8047 490.057 -10 350 -10 c 0
 103 -10 30 168 30 372 c 0
 30 572 145 763 350 763 c 0
 516.879 763 611.404 672.204 650.046 542.048 c 1
 558.025 528.359 l 1
EndSplineSet
EndChar

StartChar: V
Encoding: 86 86 36
Width: 700
VWidth: 0
Flags: W
VStem: 30 89<602.678 733> 582 91<614.838 733>
LayerCount: 2
Fore
SplineSet
673 733 m 0
 673 525 461 -10 350 -10 c 0
 239 -10 30 529 30 733 c 0
 119 733 l 0
 119 571 317 101 354 101 c 0
 383 101 582 579 582 733 c 0
 673 733 l 0
EndSplineSet
EndChar

StartChar: G
Encoding: 71 71 37
Width: 700
VWidth: 0
Flags: W
HStem: -10 79<255.839 454.314> 262 51<338 418.92> 262 36<533 626> 528.359 21G<542.173 650.046> 685 78<261.012 449.048>
VStem: 30 89<224.902 509.044> 533 93<146 298>
LayerCount: 2
Fore
SplineSet
533 298 m 1xbe
 626 298 l 1
 626 146 l 1
 533 146 l 1
 533 298 l 1xbe
338 313 m 1xde
 627 338 l 1
 627 262 l 1xbe
 338 262 l 1
 338 313 l 1xde
558.025 528.359 m 1
 526.32 618.997 461.07 685 350 685 c 0
 185 685 119 518 119 372 c 0
 119 210 181 69 350 69 c 0
 460.021 69 521.607 122.855 553.23 199.275 c 1
 626.018 145.777 l 1
 577.899 51.8047 490.057 -10 350 -10 c 0
 103 -10 30 168 30 372 c 0
 30 572 145 763 350 763 c 0
 516.879 763 611.404 672.204 650.046 542.048 c 1
 558.025 528.359 l 1
EndSplineSet
EndChar

StartChar: P
Encoding: 80 80 38
Width: 700
VWidth: 0
Flags: HW
HStem: 0 21G<138.756 223.108> 334 84<244 407.562> 660 80<245 414.896>
VStem: 130 114<418 660> 139 84<0 574> 205 18<334 738> 507 66<486.549 591.57>
LayerCount: 2
Fore
SplineSet
223 0 m 1xea
 139 0 l 1xea
 130 738 l 1xf2
 227 738 l 1
 223 0 l 1xea
244 418 m 0xf2
 346 418 504 439 507 531 c 0
 510.717 644.979 347 660 245 660 c 0
 244 418 l 0xf2
205 740 m 0xe6
 350 740 573 737 573 531 c 0
 573 325 350 334 205 334 c 0
 205 740 l 0xe6
EndSplineSet
EndChar

StartChar: D
Encoding: 68 68 39
Width: 700
VWidth: 0
Flags: W
HStem: -10 79<115 269.466> 696 67<108 257.041>
VStem: 26 89<69 696> 26 82<69 696> 473 104<241.711 507.824>
LayerCount: 2
Fore
SplineSet
156 696 m 0xd8
 325.106 696 521 652 521 373 c 0
 521 120 346 69 163 69 c 0xe8
 156 696 l 0xd8
74 -10 m 0xd8
 309 -10 625 17 625 372 c 0
 625 745 307 763 74 763 c 0
 74 -10 l 0xd8
EndSplineSet
EndChar

StartChar: Y
Encoding: 89 89 40
Width: 700
VWidth: 0
Flags: W
HStem: 0 21G<294 404> 347 71<322 376>
VStem: 30 89<697.224 733> 294 110<0 418> 582 91<694.253 733>
LayerCount: 2
Fore
SplineSet
294 418 m 1
 404 418 l 1
 404 0 l 1
 294 0 l 1
 294 418 l 1
673 733 m 0
 671 671 376 347 350 347 c 0
 322 347 37 665 30 733 c 0
 119 733 l 0
 119 705 332 458 354 458 c 0
 376 458 581 697 582 733 c 0
 673 733 l 0
EndSplineSet
EndChar

StartChar: X
Encoding: 88 88 41
Width: 700
VWidth: 0
Flags: W
HStem: 1 21G<30 119 581.5 673> 312 114<327 381>
VStem: 30 89<1 38.6562 695.516 733> 582 91<1 43.0056 691.3 733>
LayerCount: 2
Fore
SplineSet
673 1 m 0
 582 1 l 0
 581 37 379 312 357 312 c 0
 335 312 119 29 119 1 c 0
 30 1 l 0
 37 69 325 423 353 423 c 0
 379 423 671 63 673 1 c 0
673 733 m 0
 671 671 381 315 355 315 c 0
 327 315 37 665 30 733 c 0
 119 733 l 0
 119 705 337 426 359 426 c 0
 381 426 581 697 582 733 c 0
 673 733 l 0
EndSplineSet
EndChar

StartChar: T
Encoding: 84 84 42
Width: 700
VWidth: 0
Flags: W
HStem: 648 78<49 226.042> 672 78<478.958 656>
VStem: 302 80<490.818 706> 313 91<4 231.182>
LayerCount: 2
Fore
SplineSet
49 726 m 1x80
 49 648 l 1x80
 656 672 l 1
 656 750 l 1x40
 49 726 l 1x80
404 4 m 1x10
 382 718 l 1
 302 706 l 1x20
 313 2 l 1
 404 4 l 1x10
EndSplineSet
EndChar

StartChar: S
Encoding: 83 83 43
Width: 700
VWidth: 0
Flags: W
HStem: 339.026 87.748<251.789 430.484>
VStem: 64.7441 80.1377<534.551 658.62> 513.52 85.4805<127.816 260.912>
LayerCount: 2
Fore
SplineSet
112.827 178.14 m 0
 189.76 84.2549 513.52 19.9413 513.52 191 c 3
 513.52 231.199 484.055 339.026 331.872 339.026 c 3
 58.3311 339.026 64.7441 538.944 64.7441 600.798 c 3
 64.7441 867.239 490.012 804 599 671.533 c 0
 550.917 613.658 l 0
 473.983 707.543 144.882 758.011 144.882 600.798 c 3
 144.882 568.646 193.996 426.774 331.872 426.774 c 3
 635.359 426.774 599 245.261 599 191 c 3
 599 -106.088 173.732 -12.2021 64.7441 120.266 c 0
 112.827 178.14 l 0
EndSplineSet
EndChar

StartChar: W
Encoding: 87 87 44
Width: 700
VWidth: 0
Flags: W
HStem: 0 238<136.5 214 506.806 570> 733 20G<33 133>
VStem: 33 100<518.977 753> 583 89<507.456 736>
LayerCount: 2
Fore
SplineSet
154 0 m 1
 119 0 33 619 33 753 c 0
 133 753 l 0
 133 661 184 238 205 238 c 1
 223 238 327 447 361 460 c 1
 392 453 499.612 232 514 232 c 0
 538 232 583 644 583 736 c 0
 672 738 l 0
 672 604 590 0 550 0 c 0
 529.793 0 463 117 363 276 c 1
 280 175 184 0 154 0 c 1
EndSplineSet
EndChar

StartChar: L
Encoding: 76 76 45
Width: 700
VWidth: 0
Flags: W
HStem: 10 78<546.6 594> 16 62<122 208 386.625 451.8>
VStem: 106 80<521.909 746> 122 86<16 252.091>
LayerCount: 2
Fore
SplineSet
120 78 m 1x40
 120 0 l 1
 594 10 l 1
 594 88 l 1x80
 120 78 l 1x40
208 16 m 1x50
 186 758 l 1
 106 746 l 1x60
 122 16 l 1
 208 16 l 1x50
EndSplineSet
EndChar

StartChar: N
Encoding: 78 78 46
Width: 700
VWidth: 0
Flags: W
VStem: 44 110<0 194.923> 550 110<495 726>
LayerCount: 2
Fore
SplineSet
658 0 m 1
 660 726 l 1
 550 726 l 1
 572 0 l 1
 658 0 l 1
128 724 m 1
 98 618 l 1
 572 0 l 1
 610 116 l 1
 128 724 l 1
154 0 m 1
 128 724 l 1
 50 724 l 1
 44 0 l 1
 154 0 l 1
EndSplineSet
EndChar

StartChar: A
Encoding: 65 65 47
Width: 700
VWidth: 0
Flags: W
HStem: 284 104<461.808 530> 310 84<255 331.192>
VStem: 110 89<0 142.384> 579 91<0 145.806>
LayerCount: 2
Fore
SplineSet
215 394 m 1x70
 215 310 l 1x70
 498 284 l 1
 490 388 l 1xb0
 215 394 l 1x70
630 0 m 0
 630 208 468 743 357 743 c 0
 246 743 70 204 70 0 c 0
 159 0 l 0
 159 162 324 632 361 632 c 0
 390 632 539 154 539 0 c 0
 630 0 l 0
EndSplineSet
EndChar

StartChar: at
Encoding: 64 64 48
Width: 700
VWidth: 0
Flags: W
HStem: -54 67<233.321 468.001> 62 53<273.709 399.547> 216 61<270.917 422.49> 357 61<283.024 414.75> 486 73<206.673 453.12>
VStem: 44 80<118.152 402.127> 208 60<120.372 211.759> 221 50<323 340.876> 446 70<165 325.692> 596 61<115.559 354.744>
LayerCount: 2
Fore
SplineSet
464 25 m 1xfcc0
 434 17 401 13 362 13 c 0
 196 13 124 77 124 243 c 0
 124 409 153 486 319 486 c 0
 485 486 596 414 596 248 c 0
 596 157 598 134 554 97 c 1
 603 54 l 1
 648 105 657 154 657 250 c 0
 657 454 513 559 309 559 c 0
 105 559 44 450 44 246 c 0
 44 42 149 -54 353 -54 c 0
 403 -54 447 -48 484 -36 c 1
 464 25 l 1xfcc0
516 244 m 1
 450 246 l 1
 499 178 466 165 603 54 c 1
 621 125 l 1
 560 166 l 1
 516 244 l 1
271 302 m 1xfdc0
 272 346 311 357 350 357 c 0
 422 357 446 310 446 245 c 0
 446 180 407 115 341 115 c 0
 275 115 268 123 268 178 c 3
 268 214 298 216 324 216 c 24
 376 216 449 201 449 169 c 0
 472 215 l 0
 472 247 374 277 318 277 c 3
 264 277 208 247 208 185 c 3xfec0
 208 91 240 62 342 62 c 0
 444 62 516 150 516 244 c 0
 516 338 446 418 344 418 c 0
 305 418 222 425 221 323 c 1
 219 323 239 306 271 302 c 1xfdc0
280 360 m 1
235 373 m 1
EndSplineSet
EndChar

StartChar: M
Encoding: 77 77 49
Width: 700
VWidth: 0
Flags: W
HStem: 548 208<60.5 165> 562 176<544.806 630>
VStem: 30 100<0 261.099> 571 89<2 245.773>
LayerCount: 2
Fore
SplineSet
78 756 m 1xb0
 43 756 30 134 30 0 c 0
 130 0 l 0
 130 92 135 548 156 548 c 1xb0
 174 548 274 403 356 349 c 1
 438 417 537.612 562 552 562 c 0
 576 562 571 94 571 2 c 0
 660 0 l 0
 660 134 650 738 610 738 c 0x70
 589.793 738 394 507 352 479 c 1
 300 497 108 756 78 756 c 1xb0
EndSplineSet
EndChar

StartChar: Z
Encoding: 90 90 50
Width: 700
VWidth: 0
Flags: W
HStem: 1.46973 79.5303<341.7 582> 624.71 94.1201<127 382.261> 635 80.8896<283.735 528>
LayerCount: 2
Fore
SplineSet
582 81 m 0xa0
 423 81 191 101.498 191 114.81 c 3
 191 128.122 215.5 247.138 346 331 c 0
 712 566.2 648.094 715.89 600 715.89 c 3xa0
 438.105 715.89 321 718.83 100 718.83 c 0
 127 624.71 l 0xc0
 252 624.71 528 635 528 635 c 3
 528 598.25 456 481.56 336 411 c 0
 14.333 221.859 83.9688 0 100 0 c 3
 198.899 0 379 1.46973 600 1.46973 c 0
 582 81 l 0xa0
EndSplineSet
EndChar

StartChar: E
Encoding: 69 69 51
Width: 700
VWidth: 0
Flags: W
HStem: 668 78<269 598>
LayerCount: 2
Fore
SplineSet
142 418 m 1
 142 340 l 1
 404 346 l 1
 404 424 l 1
 142 418 l 1
128 736 m 1
 128 658 l 1
 598 668 l 1
 598 746 l 1
 128 736 l 1
120 78 m 1
 120 0 l 1
 594 2 l 1
 594 80 l 1
 120 78 l 1
208 16 m 1
 206 730 l 1
 126 736 l 1
 122 16 l 1
 208 16 l 1
EndSplineSet
EndChar

StartChar: B
Encoding: 66 66 52
Width: 700
VWidth: 0
Flags: W
HStem: -3 84<220 399.68> 323 95<221 322> 660 80<221 390.896>
VStem: 106 114<164 323 418 660> 115 105<81 323 418 574> 181 18<0 334 403 738> 483 66<486.549 591.57> 503 88<149.549 246.75>
LayerCount: 2
Fore
SplineSet
220 81 m 0xe9
 322 81 500 98 503 190 c 0
 506.717 303.979 323 323 221 323 c 0
 220 81 l 0xe9
181 403 m 0xe5
 326 403 591 400 591 194 c 0
 591 -12 326 -3 181 -3 c 0
 181 403 l 0xe5
199 0 m 1
 115 0 l 1xe8
 106 738 l 1xf0
 203 738 l 1
 199 0 l 1
220 418 m 0xf2
 322 418 480 439 483 531 c 0
 486.717 644.979 323 660 221 660 c 0
 220 418 l 0xf2
181 740 m 0xe6
 326 740 549 737 549 531 c 0
 549 325 326 334 181 334 c 0
 181 740 l 0xe6
EndSplineSet
EndChar

StartChar: R
Encoding: 82 82 53
Width: 700
VWidth: 0
Flags: W
HStem: 0 21G<129.756 214.108 468.215 572> 660 80<236 405.896>
VStem: 121 114<418 660> 130 84<0 574> 196 18<334 738> 498 66<486.549 591.57>
LayerCount: 2
Fore
SplineSet
296 372 m 1xc4
 400 374 l 1
 572 0 l 1
 533.333 0 516.667 0 478 0 c 1
 296 372 l 1xc4
214 0 m 1xd4
 130 0 l 1xd4
 121 738 l 1xe4
 218 738 l 1
 214 0 l 1xd4
235 418 m 0xe4
 337 418 495 439 498 531 c 0
 501.717 644.979 338 660 236 660 c 0
 235 418 l 0xe4
196 740 m 0xcc
 341 740 564 737 564 531 c 0
 564 325 341 334 196 334 c 0
 196 740 l 0xcc
EndSplineSet
EndChar

StartChar: K
Encoding: 75 75 54
Width: 700
VWidth: 0
Flags: W
VStem: 92 91<8 360.4>
LayerCount: 2
Fore
SplineSet
136 458 m 1
 143 316 l 1
 562 692 l 1
 560.307 789.973 l 1
 136 458 l 1
134 447 m 1
 141 307 l 1
 477 0 l 1
 623 0 l 1
 134 447 l 1
183 8 m 1
 171 800 l 1
 77 770 l 1
 92 2 l 1
 183 8 l 1
EndSplineSet
EndChar

StartChar: F
Encoding: 70 70 55
Width: 700
VWidth: 0
Flags: W
HStem: 668 78<265 594>
LayerCount: 2
Fore
SplineSet
138 418 m 1
 138 340 l 1
 475 346 l 1
 475 424 l 1
 138 418 l 1
124 736 m 1
 124 658 l 1
 594 668 l 1
 594 746 l 1
 124 736 l 1
204 0 m 1
 202 730 l 1
 122 736 l 1
 118 0 l 1
 204 0 l 1
EndSplineSet
EndChar

StartChar: one
Encoding: 49 49 56
Width: 700
VWidth: 0
Flags: W
VStem: 296 86<24 294.667>
LayerCount: 2
Fore
SplineSet
140 573 m 5
 316 621 l 5
 354 713 l 5
 280 718 l 5
 140 573 l 5
118 79 m 1
 118 1 l 1
 578 0 l 1
 578 78 l 1
 118 79 l 1
382 24 m 1
 364 720 l 5
 280 718 l 5
 296 24 l 1
 382 24 l 1
EndSplineSet
EndChar

StartChar: three
Encoding: 51 51 57
Width: 700
VWidth: 0
Flags: W
HStem: 0 84<160 352.618> 332 44<265 336.894> 656 88<156 350.01>
VStem: 504 84<157.758 242.726> 516 70<510.076 590.416>
LayerCount: 2
Fore
SplineSet
98 744 m 0xe8
 243 744 597 816 586 556 c 0xe8
 578.476 378.159 490 360 490 360 c 0
 490 360 589.817 359.99 588 194 c 0
 585 -80 253 0 108 0 c 0
 160 84 l 0
 262 84 505.243 102.009 504 194 c 0xf0
 503 268 371.606 332 265 332 c 0
 262 376 l 0
 329 376 516 480 516 558 c 0
 516 650 258 656 156 656 c 0
 98 744 l 0xe8
EndSplineSet
EndChar

StartChar: eight
Encoding: 56 56 58
Width: 700
VWidth: 0
Flags: HW
HStem: -10 68.3105<260.844 439.156> 333.479 65.4248<213.7 486.3> 674.07 70.2354<262.2 437.8>
VStem: 115 94<111.73 278.728 452.323 619.32> 491 94<111.73 278.728 452.323 619.32>
LayerCount: 2
Fore
SplineSet
209 539.524 m 0
 209 451.01 254.12 402.903 350 402.903 c 0
 445.88 402.903 491 451.01 491 539.524 c 0
 491 628.04 445.88 678.07 350 678.07 c 0
 254.12 678.07 209 628.04 209 539.524 c 0
115 539.524 m 0
 115 668.449 213.7 748.306 350 748.306 c 0
 486.3 748.306 585 668.449 585 539.524 c 0
 585 410.601 486.3 334.593 350 334.593 c 0
 213.7 334.593 115 410.601 115 539.524 c 0
209 194.933 m 0
 209 106.417 254.12 58.3105 350 58.3105 c 0
 445.88 58.3105 491 106.417 491 194.933 c 0
 491 283.447 445.88 333.479 350 333.479 c 0
 254.12 333.479 209 283.447 209 194.933 c 0
115 194.933 m 0
 115 323.857 213.7 403.713 350 403.713 c 0
 486.3 403.713 585 323.857 585 194.933 c 0
 585 66.0078 486.3 -10 350 -10 c 0
 213.7 -10 115 66.0078 115 194.933 c 0
EndSplineSet
EndChar

StartChar: hyphen
Encoding: 45 45 59
Width: 700
VWidth: 0
Flags: W
HStem: 323 96<121 579>
LayerCount: 2
Fore
SplineSet
121 419 m 1
 579 419 l 1
 579 323 l 1
 121 323 l 1
 121 419 l 1
EndSplineSet
EndChar

StartChar: greater
Encoding: 62 62 60
Width: 700
VWidth: 0
Flags: W
HStem: 81 101<131 197.955> 486 101<131 188.688>
LayerCount: 2
Fore
SplineSet
131 587 m 0
 178 587 599 375 599 334 c 0
 599 299 195 81 131 81 c 0
 131 182 l 0
 184 180 430 311 430 332 c 0
 430 356 157 486 131 486 c 0
 131 587 l 0
EndSplineSet
EndChar

StartChar: four
Encoding: 52 52 61
Width: 704
VWidth: 0
Flags: W
VStem: 154 86<304 420.667> 464 86<0 260.75> 484 70<484.25 740>
LayerCount: 2
Fore
SplineSet
550 0 m 1xc0
 554 740 l 1
 484 745 l 1xa0
 464 0 l 1
 550 0 l 1xc0
156 386 m 1
 156 308 l 1
 536 312 l 1
 536 390 l 1
 156 386 l 1
240 304 m 1
 216 736 l 1
 136 724 l 1
 154 304 l 1
 240 304 l 1
EndSplineSet
EndChar

StartChar: five
Encoding: 53 53 62
Width: 700
VWidth: 0
Flags: W
HStem: -10 95<253.64 428.503> 349 74<158.333 461.25> 354 78<105 291.667> 640 78<400.167 588>
VStem: 105 86<379 686.125> 105 78<422.875 730> 119.675 100<119.82 261.623> 497 100<153.858 315.755>
LayerCount: 2
Fore
SplineSet
349 349 m 0xd5
 451 349 497 331 497 239 c 0
 497 147 443 85 341 85 c 0
 239 85 219.675 125.903 219.675 217.903 c 0
 219.675 231.839 220.776 246.371 223 261 c 1
 126.438 276.813 l 1
 121.001 257.613 119.675 237.847 119.675 217.903 c 0
 119.675 83.9033 200 -10 345 -10 c 0
 490 -10 597 105 597 239 c 0
 597 373 490 423 345 423 c 0xd3
 105 432 l 1xb9
 105 354 l 1xb5
 349 349 l 0xd5
105 736 m 1x95
 105 658 l 1x99
 588 640 l 1
 588 718 l 1
 105 736 l 1x95
191 379 m 1
 183 730 l 1x95
 103 736 l 1
 108 359 l 1
 191 379 l 1
EndSplineSet
EndChar

StartChar: backslash
Encoding: 92 92 63
Width: 700
VWidth: 0
Flags: W
HStem: 0 21G<361.453 540> 737 20G<84 177.828>
LayerCount: 2
Fore
SplineSet
418 0 m 1
 304.905 251.802 195.009 515.682 84 757 c 1
 168 757 l 1
 540 0 l 1
 418 0 l 1
EndSplineSet
EndChar

StartChar: seven
Encoding: 55 55 64
Width: 700
VWidth: 0
Flags: W
HStem: 620 109<115 209.8>
VStem: 406 108<0 47.9394>
LayerCount: 2
Fore
SplineSet
592 601 m 1
 593 694 l 1
 114 729 l 1
 115 620 l 1
 592 601 l 1
505 678 m 1
 406 0 l 1
 514 0 l 1
 592 601 l 1
 505 678 l 1
EndSplineSet
EndChar

StartChar: six
Encoding: 54 54 65
Width: 700
VWidth: 0
Flags: W
HStem: -10 75<274.448 425.42> 380 81<250.92 453.571> 495 21G<508 592>
VStem: 100 100<150.088 502.464> 507 93<156.703 330.554> 508 84<504 588.547>
LayerCount: 2
Fore
SplineSet
100 250 m 0xf4
 100 762 257.515 759.884 400 733 c 0
 506 713 592 638 592 504 c 0
 508 495 l 0
 508 587 470 639 384 661 c 0
 285.183 686.279 200 658 200 250 c 0
 100 250 l 0xf4
200 250 m 0
 200 158 247 65 349 65 c 0
 451 65 507 158 507 250 c 0xf8
 507 342 455 380 353 380 c 0
 251 380 200 342 200 250 c 0
100 250 m 0
 100 384 220 461 365 461 c 0
 510 461 600 384 600 250 c 0
 600 116 495 -10 350 -10 c 0
 205 -10 100 116 100 250 c 0
EndSplineSet
EndChar

StartChar: nine
Encoding: 57 57 66
Width: 700
VWidth: 0
Flags: W
HStem: 0 81<258.687 436.3> 249 81<287.756 474.597> 655 75<273.691 439.966>
VStem: 114 93<420.503 593.773> 142 84<116.659 211> 520 100<217.688 553.562>
LayerCount: 2
Fore
SplineSet
620 447 m 0xec
 620 -65 384 0 356 0 c 3
 248.13 0 142 77 142 211 c 0
 226 220 l 0
 226 128 245.23 81 334 81 c 3
 392 81 520 39 520 447 c 0
 620 447 l 0xec
520 447 m 0
 520 539 472 655 370 655 c 0
 268 655 207 606 207 514 c 0xf4
 207 422 263 330 365 330 c 0
 467 330 520 355 520 447 c 0
620 447 m 0
 620 313 498 249 353 249 c 0
 208 249 114 380 114 514 c 0
 114 648 224 730 369 730 c 0
 514 730 620 581 620 447 c 0
EndSplineSet
EndChar

StartChar: period
Encoding: 46 46 67
Width: 700
VWidth: 0
Flags: W
HStem: -30.9844 159.12<247.093 358.139>
VStem: 221.832 161.568<-4.96791 102.119>
LayerCount: 2
Fore
SplineSet
221.832 48.5762 m 0
 221.832 92.6396 258.553 128.136 302.615 128.136 c 0
 346.68 128.136 383.4 92.6396 383.4 48.5762 c 0
 383.4 4.51172 346.68 -30.9844 302.615 -30.9844 c 0
 258.553 -30.9844 221.832 4.51172 221.832 48.5762 c 0
EndSplineSet
EndChar

StartChar: question
Encoding: 63 63 68
Width: 700
VWidth: 0
Flags: W
HStem: -14.8965 109.793<293.524 380.993> 218 84<376.946 459.335> 648 90<268.548 425.452>
VStem: 97 100<446.068 570.8> 281.518 111.482<-3.21431 83.2143> 295 72<148.954 213.848> 497 100<340.506 570.8>
LayerCount: 2
Fore
SplineSet
281.518 40 m 0xfa
 281.518 70.4043 306.854 94.8965 337.258 94.8965 c 0
 367.662 94.8965 393 70.4043 393 40 c 0
 393 9.5957 367.662 -14.8965 337.258 -14.8965 c 0
 306.854 -14.8965 281.518 9.5957 281.518 40 c 0xfa
399 218 m 0
 544 218 597 316 597 478 c 0
 597 612 492 738 347 738 c 0
 202 738 97 612 97 478 c 0
 97 464.456 98.0723 450.994 100.15 437.736 c 1
 197.778 446.64 l 1
 196.59 457.282 197 467.801 197 478 c 0
 197 570 245 648 347 648 c 0
 449 648 497 570 497 478 c 0
 497 368 488 302 386 302 c 0
 337.26 285.83 295 198 295 157 c 3
 295 140 367 137 367 154 c 3xf6
 367 193 384.95 218.022 399 218 c 0
EndSplineSet
EndChar

StartChar: colon
Encoding: 58 58 69
Width: 700
VWidth: 0
Flags: W
HStem: -30.9844 159.12<247.093 358.139> 332.88 159.12<247.093 358.139>
VStem: 221.832 161.568<-4.96791 102.119 358.896 465.984>
LayerCount: 2
Fore
SplineSet
221.832 412.44 m 0
 221.832 456.504 258.553 492 302.615 492 c 0
 346.68 492 383.4 456.504 383.4 412.44 c 0
 383.4 368.376 346.68 332.88 302.615 332.88 c 0
 258.553 332.88 221.832 368.376 221.832 412.44 c 0
221.832 48.5762 m 0
 221.832 92.6396 258.553 128.136 302.615 128.136 c 0
 346.68 128.136 383.4 92.6396 383.4 48.5762 c 0
 383.4 4.51172 346.68 -30.9844 302.615 -30.9844 c 0
 258.553 -30.9844 221.832 4.51172 221.832 48.5762 c 0
EndSplineSet
EndChar

StartChar: exclam
Encoding: 33 33 70
Width: 700
VWidth: 0
Flags: W
HStem: -30.9844 159.12<247.093 358.139>
VStem: 221.832 161.568<-4.96791 102.119> 249.232 87.5352<236 293.986>
LayerCount: 2
Fore
SplineSet
190.321 724 m 1xa0
 342 724 l 1
 336.768 236 l 1
 249.232 236 l 1
 190.321 724 l 1xa0
221.832 48.5762 m 0xc0
 221.832 92.6396 258.553 128.136 302.615 128.136 c 0
 346.68 128.136 383.4 92.6396 383.4 48.5762 c 0
 383.4 4.51172 346.68 -30.9844 302.615 -30.9844 c 0
 258.553 -30.9844 221.832 4.51172 221.832 48.5762 c 0xc0
EndSplineSet
EndChar

StartChar: comma
Encoding: 44 44 71
Width: 700
VWidth: 0
Flags: W
HStem: -85 230
VStem: 221.832 165.953<25.1071 106.75>
LayerCount: 2
Fore
SplineSet
221.832 48.5762 m 0
 221.832 92.6396 262.938 145 307 145 c 0
 351.064 145 387.785 109.504 387.785 65.4404 c 0
 387.785 21.376 254.064 -85 210 -85 c 0
 165.938 -85 221.832 4.51172 221.832 48.5762 c 0
EndSplineSet
EndChar

StartChar: semicolon
Encoding: 59 59 72
Width: 700
VWidth: 0
Flags: W
HStem: 332.88 159.12<247.093 358.139>
VStem: 221.832 161.568<20.2986 106.75 358.896 465.984>
LayerCount: 2
Fore
SplineSet
221.832 412.44 m 0
 221.832 456.504 258.553 492 302.615 492 c 0
 346.68 492 383.4 456.504 383.4 412.44 c 0
 383.4 368.376 346.68 332.88 302.615 332.88 c 0
 258.553 332.88 221.832 368.376 221.832 412.44 c 0
221.832 48.5762 m 0
 221.832 92.6396 262.938 145 307 145 c 0
 351.064 145 387.785 109.504 387.785 65.4404 c 0
 387.785 21.376 254.064 -85 210 -85 c 0
 165.938 -85 221.832 4.51172 221.832 48.5762 c 0
EndSplineSet
EndChar

StartChar: quotesingle
Encoding: 39 39 73
Width: 700
VWidth: 0
Flags: W
HStem: 462 259
VStem: 285 129<534.247 711.688>
LayerCount: 2
Fore
SplineSet
285 631 m 0
 275.196 715.504 307 721 351 721 c 0
 395 721 422.637 703.097 414 634 c 0
 391 450 401 462 391 462 c 0
 376 462 306 450 285 631 c 0
EndSplineSet
EndChar

StartChar: quotedbl
Encoding: 34 34 74
Width: 700
VWidth: 0
Flags: W
HStem: 455 266
VStem: 168 129<533.83 711.688> 403 129<533.274 711.688>
LayerCount: 2
Fore
SplineSet
403 631 m 0
 393.195 715.504 425 721 469 721 c 0
 513 721 540.637 703.098 532 634 c 0
 509 450 521 455 511 455 c 0
 496 455 424 450 403 631 c 0
168 631 m 0
 158.195 715.504 190 721 234 721 c 0
 278 721 305.637 703.098 297 634 c 0
 274 450 279 459 269 459 c 0
 254 459 189 450 168 631 c 0
EndSplineSet
EndChar

StartChar: dollar
Encoding: 36 36 75
Width: 700
VWidth: 0
Flags: W
HStem: 339.026 87.748<251.789 430.484>
VStem: 64.7441 80.1379<534.551 658.62> 513.52 85.48<127.816 260.912>
LayerCount: 2
Fore
SplineSet
247 838 m 1
 327 838 l 1
 427 -58 l 1
 347 -58 l 1
 247 838 l 1
112.827 178.14 m 0
 189.76 84.2549 513.52 19.9413 513.52 191 c 3
 513.52 231.199 484.055 339.026 331.872 339.026 c 3
 58.3311 339.026 64.7441 538.944 64.7441 600.798 c 3
 64.7441 867.239 490.012 804 599 671.533 c 0
 550.917 613.658 l 0
 473.983 707.543 144.882 758.011 144.882 600.798 c 3
 144.882 568.646 193.996 426.774 331.872 426.774 c 3
 635.359 426.774 599 245.261 599 191 c 3
 599 -106.088 173.732 -12.2021 64.7441 120.266 c 0
 112.827 178.14 l 0
EndSplineSet
EndChar

StartChar: bracketleft
Encoding: 91 91 76
Width: 700
VWidth: 0
Flags: W
VStem: 168 108<57 159> 172 62<567 650>
LayerCount: 2
Fore
SplineSet
168 78 m 1x80
 168 0 l 1
 518 0 l 1
 518 78 l 1
 168 78 l 1x80
168 726 m 1
 172 650 l 1x40
 512 650 l 1
 514 728 l 1
 168 726 l 1
276 57 m 1x80
 234 669 l 1
 172 650 l 1x40
 168 78 l 1
 276 57 l 1x80
EndSplineSet
EndChar

StartChar: bracketright
Encoding: 93 93 77
Width: 700
VWidth: 0
Flags: W
HStem: 0 78<166 444> 650 78<172 406>
VStem: 406 106<554.895 650> 444 72<54 167.105>
LayerCount: 2
Fore
SplineSet
516 78 m 1xd0
 516 0 l 1
 166 0 l 1
 166 78 l 1
 516 78 l 1xd0
516 726 m 1
 512 650 l 1xe0
 172 650 l 1
 170 728 l 1
 516 726 l 1
444 54 m 1xd0
 406 668 l 1
 512 650 l 1xe0
 516 78 l 1
 444 54 l 1xd0
EndSplineSet
EndChar

StartChar: plus
Encoding: 43 43 78
Width: 700
VWidth: 0
Flags: W
HStem: 323 96<121 579>
VStem: 308.924 95.9951<140.059 597>
LayerCount: 2
Fore
SplineSet
308.924 139.026 m 1
 304 597 l 1
 399.994 598.031 l 1
 404.919 140.059 l 1
 308.924 139.026 l 1
121 419 m 1
 579 419 l 1
 579 323 l 1
 121 323 l 1
 121 419 l 1
EndSplineSet
EndChar

StartChar: equal
Encoding: 61 61 79
Width: 700
VWidth: 0
Flags: W
HStem: 242 96<121 579> 377 96<121 579>
LayerCount: 2
Fore
SplineSet
121 338 m 1
 579 338 l 1
 579 242 l 1
 121 242 l 1
 121 338 l 1
121 473 m 1
 579 473 l 1
 579 377 l 1
 121 377 l 1
 121 473 l 1
EndSplineSet
EndChar

StartChar: underscore
Encoding: 95 95 80
Width: 700
VWidth: 0
Flags: W
HStem: -48 96<64 636>
LayerCount: 2
Fore
SplineSet
64 48 m 1
 636 48 l 1
 636 -48 l 1
 64 -48 l 1
 64 48 l 1
EndSplineSet
EndChar

StartChar: asciicircum
Encoding: 94 94 81
Width: 700
VWidth: 0
Flags: W
HStem: 658 90<322.545 379.986>
VStem: 123 92<499 538.729>
LayerCount: 2
Fore
SplineSet
583 499 m 0
 583 524 390 748 353 748 c 0
 321 748 123 533 123 499 c 0
 215 499 l 0
 213 527 332 658 351 658 c 0
 373 658 491 513 491 499 c 0
 583 499 l 0
EndSplineSet
EndChar

StartChar: slash
Encoding: 47 47 82
Width: 700
VWidth: 0
Flags: W
LayerCount: 2
Fore
SplineSet
218 0 m 1
 331.095 251.802 476.991 515.682 588 757 c 1
 458 757 l 1
 132 0 l 1
 218 0 l 1
EndSplineSet
EndChar

StartChar: grave
Encoding: 96 96 83
Width: 700
VWidth: 0
Flags: W
VStem: 202 129<604.517 676.343>
LayerCount: 2
Fore
SplineSet
202 629 m 0
 192.195 713.504 224 719 268 719 c 0
 312 719 293.97 690.974 331 632 c 0
 439 460 537 506 481 460 c 0
 426.557 415.279 223 448 202 629 c 0
EndSplineSet
EndChar

StartChar: bar
Encoding: 124 124 84
Width: 700
VWidth: 0
Flags: W
VStem: 302 96<0 151.118> 304 60<582.882 734>
LayerCount: 2
Fore
SplineSet
398 0 m 1x80
 364 734 l 1
 304 734 l 1x40
 302 0 l 1
 398 0 l 1x80
EndSplineSet
EndChar

StartChar: less
Encoding: 60 60 85
Width: 700
VWidth: 0
Flags: W
HStem: 91 101<488.045 555> 496 101<497.312 555>
LayerCount: 2
Fore
SplineSet
555 597 m 4
 508 597 87 385 87 344 c 4
 87 309 491 91 555 91 c 4
 555 192 l 4
 502 190 256 321 256 342 c 4
 256 366 529 496 555 496 c 4
 555 597 l 4
EndSplineSet
EndChar

StartChar: asterisk
Encoding: 42 42 86
Width: 700
VWidth: 0
Flags: W
HStem: 590 96<224 261.24>
VStem: 304 53<623 661> 357 1<528 623> 359 40.9941<624 661>
LayerCount: 2
Fore
SplineSet
416 444 m 1xd0
 357 528 l 1xb0
 357 624 l 1
 478.352 516.996 l 1
 416 444 l 1xd0
299 443 m 1
 236.648 515.996 l 1
 358 623 l 1
 358 527 l 1
 299 443 l 1
483 707 m 1
 483 611 l 1
 359 565 l 1
 359 661 l 1
 483 707 l 1
303.924 555 m 1
 304 733.969 l 1xd0
 399.994 735 l 1
 399.919 556.032 l 1
 303.924 555 l 1
224 686 m 1
 357 661 l 1xd0
 357 565 l 1xb0
 224 590 l 1
 224 686 l 1
EndSplineSet
EndChar

StartChar: parenleft
Encoding: 40 40 87
Width: 700
VWidth: 0
Flags: W
HStem: -10 21G<402 437> 743 20G<419 437>
VStem: 263 89<206.099 508.799>
LayerCount: 2
Fore
SplineSet
437 -10 m 1
 367 -10 257.533 179.207 263 372 c 1
 263 572 401 763 437 763 c 0
 437 685 l 0
 415 685 352 518 352 372 c 0
 352 210 409 69 437 69 c 0
 437 -10 l 1
EndSplineSet
EndChar

StartChar: parenright
Encoding: 41 41 88
Width: 700
VWidth: 0
Flags: W
VStem: 364 89<206.099 508.799>
LayerCount: 2
Fore
SplineSet
279 -10 m 1
 349 -10 458.467 179.207 453 372 c 1
 453 572 315 763 279 763 c 0
 279 685 l 0
 301 685 364 518 364 372 c 0
 364 210 307 69 279 69 c 0
 279 -10 l 1
EndSplineSet
EndChar

StartChar: braceleft
Encoding: 123 123 89
Width: 700
VWidth: 0
Flags: W
HStem: -10 79<419.002 458> 685 78<416.43 458>
VStem: 242 89<330.49 417.028> 285.555 89.3037<136.346 326.605 419.444 610.576>
LayerCount: 2
Fore
SplineSet
374.858 288.498 m 1xd0
 383.884 80.957 433.001 69 458 69 c 0
 458 -10 l 1
 393.022 -10 297.748 -27.2334 285.555 291.83 c 1xd0
 284.535 316.49 242 343.159 242 372 c 1
 242 403.052 283.733 431.654 286.106 458 c 1
 303.576 793.084 424.624 763 458 763 c 0
 458 685 l 0
 438.118 685 384.752 698.884 374.659 458 c 1
 372.584 432.334 331 403.775 331 372 c 0xe0
 331 341.137 373.654 313.408 374.858 288.498 c 1xd0
EndSplineSet
EndChar

StartChar: braceright
Encoding: 125 125 90
Width: 700
VWidth: 0
Flags: W
HStem: -10 79<266 304.998> 685 78<266 307.57>
VStem: 349.142 89.3037<136.346 326.605 419.444 610.576> 393 89<330.49 417.028>
LayerCount: 2
Fore
SplineSet
349.142 288.498 m 1xe0
 340.116 80.957 290.999 69 266 69 c 0
 266 -10 l 1
 330.978 -10 426.252 -27.2334 438.445 291.83 c 1xe0
 439.465 316.49 482 343.159 482 372 c 1
 482 403.052 440.267 431.654 437.894 458 c 1
 420.424 793.084 299.376 763 266 763 c 0
 266 685 l 0
 285.882 685 339.248 698.884 349.341 458 c 1
 351.416 432.334 393 403.775 393 372 c 0xd0
 393 341.137 350.346 313.408 349.142 288.498 c 1xe0
EndSplineSet
EndChar

StartChar: percent
Encoding: 37 37 91
Width: 700
VWidth: 0
Flags: W
HStem: 101.677 22.5059<479.301 544.241> 313.234 22.5059<479.301 544.241> 411.249 22.5068<162.095 227.035> 622.807 22.5059<162.095 227.035>
VStem: 82.0342 45.0117<460.279 596.284> 262.084 45.0127<460.279 596.284> 399.239 45.0127<150.706 286.712> 579.289 45.0127<150.706 286.712>
LayerCount: 2
Fore
SplineSet
579.289 218.711 m 0
 579.289 260.12 557.683 313.234 511.771 313.234 c 0
 465.858 313.234 444.252 260.12 444.252 218.711 c 0
 444.252 177.297 465.858 124.183 511.771 124.183 c 0
 557.683 124.183 579.289 177.297 579.289 218.711 c 0
624.302 218.711 m 0
 624.302 158.393 577.04 101.677 511.771 101.677 c 0
 446.501 101.677 399.239 158.393 399.239 218.711 c 0
 399.239 279.024 446.501 335.74 511.771 335.74 c 0
 577.04 335.74 624.302 279.024 624.302 218.711 c 0
240.366 43.1553 m 1
 336.286 256.719 440.52 480.527 534.672 685.2 c 1
 443.92 685.2 l 1
 167.425 43.1553 l 1
 240.366 43.1553 l 1
262.084 528.282 m 0
 262.084 569.694 240.477 622.807 194.565 622.807 c 0
 148.652 622.807 127.046 569.694 127.046 528.282 c 0
 127.046 486.869 148.652 433.756 194.565 433.756 c 0
 240.477 433.756 262.084 486.869 262.084 528.282 c 0
307.097 528.282 m 0
 307.097 467.966 259.834 411.249 194.565 411.249 c 0
 129.295 411.249 82.0342 467.966 82.0342 528.282 c 0
 82.0342 588.597 129.295 645.312 194.565 645.312 c 0
 259.834 645.312 307.097 588.597 307.097 528.282 c 0
EndSplineSet
EndChar

StartChar: numbersign
Encoding: 35 35 92
Width: 700
VWidth: 0
Flags: W
HStem: 190 88<121 579> 478 89<121 579>
VStem: 212.929 76.9951<30.0771 706.351> 398.005 83.9951<30.0771 706.351>
LayerCount: 2
Fore
SplineSet
121 278 m 1
 579 278 l 1
 579 190 l 1
 121 190 l 1
 121 278 l 1
398.005 28.5498 m 1
 393.081 706.351 l 1
 477.075 707.877 l 1
 482 30.0771 l 1
 398.005 28.5498 l 1
212.929 28.5498 m 1
 208.005 706.351 l 1
 284.999 707.877 l 1
 289.924 30.0771 l 1
 212.929 28.5498 l 1
121 567 m 1
 579 567 l 1
 579 478 l 1
 121 478 l 1
 121 567 l 1
EndSplineSet
EndChar

StartChar: ampersand
Encoding: 38 38 93
Width: 700
VWidth: 0
Flags: W
HStem: -10 68.3105<260.844 439.156> 608.304 76.5215<239.901 352.994>
VStem: 115 94<111.73 261.206 423.021 577.089> 489.85 94.1504<196.092 286.062>
LayerCount: 2
Fore
SplineSet
435 608 m 1
 413 624 370.782 684.825 290.485 684.825 c 0
 237 684.825 111 634.924 111 506 c 0
 111 430.594 131.696 392.582 187 358 c 1
 625 -8 l 25
 678 54 l 25
 678 54 203.647 434.094 239 412 c 1
 201 462 205 451.631 205 506 c 0
 205 594.514 279 608.304 292.485 608.304 c 1
 361.426 606.618 395 538 403.562 528.062 c 1
 413 514 441.85 450.615 383 436 c 0
 247 402 115 323.857 115 194.933 c 0
 115 66.0078 213.7 -10 350 -10 c 0
 486.3 -10 585 66.0078 585 194.933 c 0
 585 219.67 585 243 584 290 c 1
 489.85 286.062 l 1
 492 230 491 219.804 491 194.933 c 0
 491 106.417 445.88 58.3105 350 58.3105 c 0
 254.12 58.3105 209 106.417 209 194.933 c 0
 209 283.447 304.118 330.341 385 359.479 c 0
 553 420 467 572 435 608 c 1
EndSplineSet
EndChar

StartChar: asciitilde
Encoding: 126 126 94
Width: 700
VWidth: 0
Flags: W
HStem: 231 215
VStem: 86.4482 65.5518<238 324.78> 535 64.1494<347.236 439.103>
LayerCount: 2
Fore
SplineSet
599.149 446 m 1
 608.657 407.971 557.443 244.863 489.367 231 c 1
 419.518 213.538 304.89 305.74 300 325.299 c 0
 398 340.094 l 0
 400.988 328.141 426.289 303.946 477.279 316.693 c 0
 533.858 330.839 538.803 423.891 535 439.103 c 0
 599.149 446 l 1
86.4482 230.71 m 1
 76.9404 268.739 128.154 431.847 196.229 445.71 c 1
 266.08 463.172 393.11 359.651 398 340.094 c 0
 300 325.299 l 0
 297.012 337.251 259.309 360.33 208.318 347.582 c 0
 151.739 333.438 148.197 253.212 152 238 c 0
 86.4482 230.71 l 1
EndSplineSet
EndChar
